<svg version="1.1" id="Layer_1" xmlns="http://www.w3.org/2000/svg" xmlns:xlink="http://www.w3.org/1999/xlink" x="0px" y="0px"
	 width="100%" viewBox="0 0 512 512" enable-background="new 0 0 512 512" xml:space="preserve">
<path fill="#000000" opacity="1.000000" stroke="none" 
	d="
M1.000000,231.468658 
	C3.789362,225.360382 6.345380,219.629578 11.273170,215.320801 
	C17.907444,209.519897 25.762146,207.181427 34.276058,207.109375 
	C38.843540,207.070709 39.825733,205.223923 39.772343,201.073425 
	C39.680527,193.935608 39.519588,186.809998 40.501694,179.641373 
	C43.293938,159.259979 60.676914,142.859924 81.371643,141.643738 
	C81.870560,141.614410 82.371819,141.527405 82.867409,141.553696 
	C91.199333,141.995941 96.302086,139.430573 100.623436,130.895569 
	C108.968338,114.413734 129.017227,107.331749 146.525055,112.204010 
	C165.149918,117.387123 177.268082,133.069427 177.330078,152.267242 
	C177.396820,172.932602 177.462143,193.599457 177.259979,214.263031 
	C177.216690,218.687820 178.643234,219.970154 182.980560,219.959274 
	C232.144302,219.835800 281.308624,219.825485 330.472290,219.959869 
	C335.261963,219.972946 336.794861,218.459259 336.744537,213.657043 
	C336.529633,193.160416 336.610626,172.660034 336.677948,152.161331 
	C336.742065,132.645126 350.543701,115.494278 369.064606,111.746674 
	C389.337769,107.644508 408.738617,117.554657 416.318878,136.328384 
	C417.899841,140.243881 420.067810,141.040146 423.814880,141.036331 
	C436.222290,141.023712 447.861572,143.419037 457.790375,151.748245 
	C469.073395,161.213470 473.794159,173.484879 474.276794,187.759094 
	C474.440063,192.586716 474.462189,197.430984 474.256836,202.255219 
	C474.110413,205.695770 475.437653,206.946335 478.849579,207.087494 
	C486.394623,207.399628 493.749084,208.577011 500.104095,213.232117 
	C506.409149,217.850632 510.311096,224.067993 512.820190,231.699890 
	C513.000000,248.354233 513.000000,264.708466 513.000000,281.531342 
	C510.881561,287.052795 508.929474,292.177246 504.997192,296.234955 
	C498.805939,302.623657 491.453308,306.297791 482.434052,306.426422 
	C479.963135,306.461639 477.496826,306.820160 474.296967,307.092590 
	C474.296967,313.594666 474.410858,319.874573 474.274597,326.149017 
	C473.932678,341.893127 468.071106,354.923889 455.114227,364.365417 
	C445.951569,371.042114 435.432526,373.097015 424.414917,372.906342 
	C419.976410,372.829559 417.799591,374.196198 415.992950,378.539795 
	C408.460602,396.649261 388.711823,406.390564 369.156158,402.232452 
	C350.727600,398.313995 336.723785,381.282440 336.683990,362.368713 
	C336.599823,322.371887 336.578949,282.374481 336.748657,242.378189 
	C336.768982,237.595505 335.429321,236.134384 330.582092,236.150253 
	C281.419678,236.311401 232.256271,236.312210 183.093857,236.147568 
	C178.325058,236.131592 177.139725,237.732529 177.264099,242.197067 
	C177.542450,252.188522 177.553696,262.199249 177.254700,272.189606 
	C177.120972,276.658325 178.656891,277.843964 182.984375,277.830627 
	C224.980789,277.700958 266.977783,277.765167 308.974640,277.770630 
	C311.639984,277.770966 314.288086,277.701447 316.853149,278.723724 
	C320.232635,280.070587 321.854919,282.760864 321.853577,286.100342 
	C321.852203,289.527802 319.875885,292.049408 316.542267,293.226807 
	C314.157196,294.069153 311.658112,294.143524 309.142151,294.142151 
	C267.645294,294.119873 226.148453,294.125732 184.651596,294.111969 
	C177.358978,294.109558 177.353714,294.081726 177.351898,301.547638 
	C177.346985,321.712799 177.395111,341.878082 177.331131,362.043060 
	C177.270798,381.054626 164.201050,397.525604 145.720596,402.053955 
	C127.169060,406.599792 107.885872,398.279297 99.488541,381.017914 
	C96.466125,374.805054 93.057289,372.990265 86.348267,372.794067 
	C62.923355,372.109039 47.306915,359.930969 41.369095,338.760895 
	C38.948627,330.131226 39.595547,321.240082 39.767467,312.440918 
	C39.849239,308.255524 38.900829,306.751495 34.248459,306.703735 
	C17.719193,306.534180 6.682309,298.331848 1.191238,282.292175 
	C1.000000,265.312439 1.000000,248.624878 1.000000,231.468658 
M94.192757,175.845901 
	C94.124779,171.016159 94.025696,166.186569 94.001450,161.356613 
	C93.988602,158.796997 93.105255,157.509979 90.245842,157.260529 
	C70.415840,155.530579 56.107502,168.004150 56.031582,187.924759 
	C55.855640,234.085709 55.860378,280.248322 56.047688,326.409210 
	C56.122890,344.942139 68.469231,356.654449 87.113625,356.689667 
	C93.923416,356.702515 93.957909,356.702515 93.960854,349.763458 
	C93.979599,305.601532 93.968300,261.439575 94.019829,217.277725 
	C94.023308,214.295959 94.199043,211.264572 94.760094,208.345734 
	C95.476784,204.617142 98.003235,202.720749 101.882217,202.669556 
	C107.414795,202.596542 110.274391,206.074448 110.278587,213.218018 
	C110.307693,262.712677 110.248764,312.207489 110.352280,361.701965 
	C110.388176,378.863800 126.698227,390.792816 143.193939,386.006042 
	C154.689056,382.670319 161.634903,372.737396 161.640778,359.363251 
	C161.667068,299.536316 161.653915,239.709412 161.653946,179.882492 
	C161.653961,170.883453 161.769226,161.882401 161.618210,152.885849 
	C161.366745,137.904343 150.110580,126.801537 135.571060,126.996574 
	C121.151413,127.190010 110.436729,138.218842 110.322769,153.042114 
	C110.265121,160.540878 110.399086,168.042419 110.249283,175.538757 
	C110.135941,181.211014 107.162117,184.675247 102.557938,184.987930 
	C98.409554,185.269638 95.418961,182.254013 94.192757,175.845901 
M352.333954,156.623932 
	C352.330078,205.938599 352.322937,255.253265 352.323944,304.567932 
	C352.324341,323.560730 352.205383,342.554962 352.402985,361.545807 
	C352.531036,373.852997 361.626007,384.720703 372.845337,386.623627 
	C385.888977,388.835968 397.134552,382.704102 401.907684,370.840118 
	C403.367310,367.212128 403.713776,363.468323 403.712128,359.597687 
	C403.682739,291.456787 403.695374,223.315872 403.696075,155.174973 
	C403.696106,153.509048 403.724335,151.839859 403.635712,150.177719 
	C403.024048,138.705856 393.011444,128.288498 381.619781,127.239708 
	C363.973389,125.615074 352.440186,136.810699 352.333954,156.623932 
M419.970886,346.454803 
	C419.982544,348.452637 420.046539,350.451904 419.993347,352.447998 
	C419.918152,355.268402 420.972534,356.563080 424.047394,356.760498 
	C443.943878,358.038086 457.868378,346.049957 457.982910,326.314209 
	C458.251495,280.031708 458.236267,233.745560 457.971710,187.462952 
	C457.864990,168.785721 445.595367,157.335815 426.867828,157.285538 
	C419.968781,157.267014 419.965759,157.266998 419.965942,164.159195 
	C419.967499,224.595093 419.970184,285.031006 419.970886,346.454803 
M497.650299,270.331909 
	C497.649567,260.684967 497.698334,251.037735 497.635529,241.391205 
	C497.556580,229.264206 490.421570,222.682968 478.363831,223.222305 
	C475.376312,223.355942 474.244690,224.407333 474.255615,227.379105 
	C474.328369,247.171646 474.340088,266.964661 474.275360,286.757202 
	C474.265106,289.891602 475.713196,290.623627 478.554626,290.725311 
	C490.824432,291.164154 497.543671,284.406647 497.650299,270.331909 
M18.029829,281.239716 
	C21.681799,288.593964 27.884882,291.011505 35.721638,290.733887 
	C38.816509,290.624237 39.796047,289.400085 39.708035,286.498138 
	C39.577015,282.178436 39.681572,277.851593 39.681705,273.527802 
	C39.682186,258.394470 39.677929,243.261154 39.683281,228.127838 
	C39.684132,225.726440 39.823540,223.621109 36.313694,223.284622 
	C24.616835,222.163177 16.606592,229.023224 16.372185,240.805176 
	C16.263042,246.290939 16.189585,251.786362 16.386007,257.267151 
	C16.664398,265.035065 15.238818,272.904785 18.029829,281.239716 
z"/>
</svg>