<svg width="33" height="7" viewBox="0 0 33 7" fill="none" xmlns="http://www.w3.org/2000/svg">
<path d="M1.836 6.12C1.524 6.12 1.268 6.024 1.068 5.832C0.868 5.64 0.768 5.352 0.768 4.968V3.444C0.768 3.364 0.728 3.324 0.648 3.324H0.432C0.328 3.324 0.24 3.292 0.168 3.228C0.096 3.156 0.06 3.068 0.06 2.964C0.06 2.852 0.096 2.76 0.168 2.688C0.24 2.616 0.328 2.58 0.432 2.58H0.648C0.728 2.58 0.768 2.54 0.768 2.46V1.452C0.768 1.34 0.804 1.252 0.876 1.188C0.956 1.116 1.052 1.08 1.164 1.08C1.284 1.08 1.38 1.116 1.452 1.188C1.532 1.252 1.572 1.34 1.572 1.452V2.46C1.572 2.54 1.612 2.58 1.692 2.58H2.34C2.436 2.58 2.52 2.616 2.592 2.688C2.664 2.76 2.7 2.852 2.7 2.964C2.7 3.068 2.664 3.156 2.592 3.228C2.528 3.292 2.44 3.324 2.328 3.324H1.692C1.612 3.324 1.572 3.364 1.572 3.444V4.86C1.572 5.196 1.708 5.364 1.98 5.364C2.06 5.364 2.144 5.352 2.232 5.328C2.32 5.304 2.38 5.292 2.412 5.292C2.524 5.292 2.608 5.328 2.664 5.4C2.728 5.472 2.76 5.556 2.76 5.652C2.76 5.724 2.74 5.796 2.7 5.868C2.66 5.932 2.596 5.98 2.508 6.012C2.42 6.044 2.308 6.068 2.172 6.084C2.044 6.108 1.932 6.12 1.836 6.12ZM4.17881 4.224V5.748C4.17881 5.868 4.13481 5.96 4.04681 6.024C3.96681 6.088 3.87481 6.12 3.77081 6.12C3.66681 6.12 3.57081 6.088 3.48281 6.024C3.40281 5.96 3.36281 5.868 3.36281 5.748V2.928C3.36281 2.792 3.40281 2.692 3.48281 2.628C3.57081 2.556 3.66681 2.52 3.77081 2.52C3.87481 2.52 3.96681 2.556 4.04681 2.628C4.13481 2.692 4.17881 2.792 4.17881 2.928V2.976C4.29081 2.824 4.43481 2.7 4.61081 2.604C4.79481 2.508 4.98681 2.46 5.18681 2.46C5.28281 2.46 5.37881 2.472 5.47481 2.496C5.57081 2.52 5.64281 2.568 5.69081 2.64C5.73881 2.712 5.76281 2.792 5.76281 2.88C5.76281 2.984 5.72681 3.08 5.65481 3.168C5.59081 3.248 5.49481 3.288 5.36681 3.288C5.31081 3.288 5.25081 3.28 5.18681 3.264C5.13081 3.248 5.05881 3.24 4.97081 3.24C4.73881 3.24 4.54681 3.328 4.39481 3.504C4.25081 3.68 4.17881 3.92 4.17881 4.224ZM7.85503 6.12C7.25503 6.12 6.78703 5.948 6.45103 5.604C6.11503 5.26 5.94703 4.796 5.94703 4.212C5.94703 3.7 6.11503 3.28 6.45103 2.952C6.79503 2.624 7.23503 2.46 7.77103 2.46C8.29103 2.46 8.70703 2.612 9.01903 2.916C9.33103 3.212 9.48703 3.58 9.48703 4.02C9.48703 4.196 9.43903 4.328 9.34303 4.416C9.25503 4.504 9.13903 4.548 8.99503 4.548H6.90703C6.82703 4.548 6.79903 4.592 6.82303 4.68C6.88703 4.904 7.01503 5.08 7.20703 5.208C7.40703 5.328 7.63103 5.388 7.87903 5.388C8.06303 5.388 8.23903 5.364 8.40703 5.316C8.58303 5.268 8.73503 5.196 8.86303 5.1C8.90303 5.068 8.95503 5.052 9.01903 5.052C9.10703 5.052 9.18703 5.092 9.25903 5.172C9.33103 5.244 9.36703 5.332 9.36703 5.436C9.36703 5.484 9.35903 5.532 9.34303 5.58C9.32703 5.628 9.29103 5.676 9.23503 5.724C9.02703 5.876 8.80303 5.98 8.56303 6.036C8.33103 6.092 8.09503 6.12 7.85503 6.12ZM8.55103 3.924C8.59903 3.924 8.62303 3.9 8.62303 3.852C8.62303 3.668 8.53903 3.508 8.37103 3.372C8.21103 3.236 8.01103 3.168 7.77103 3.168C7.56303 3.168 7.36303 3.224 7.17103 3.336C6.98703 3.448 6.87503 3.596 6.83503 3.78C6.83503 3.78 6.83503 3.784 6.83503 3.792C6.82703 3.824 6.82303 3.852 6.82303 3.876C6.83103 3.9 6.86703 3.912 6.93103 3.912L8.55103 3.924ZM10.6266 6.12C10.5226 6.12 10.4266 6.088 10.3386 6.024C10.2586 5.96 10.2186 5.868 10.2186 5.748V2.868C10.2186 2.732 10.2586 2.632 10.3386 2.568C10.4266 2.496 10.5226 2.46 10.6266 2.46C10.7306 2.46 10.8226 2.496 10.9026 2.568C10.9906 2.632 11.0346 2.732 11.0346 2.868V5.748C11.0346 5.868 10.9906 5.96 10.9026 6.024C10.8226 6.088 10.7306 6.12 10.6266 6.12ZM10.6386 1.8C10.4866 1.8 10.3546 1.752 10.2426 1.656C10.1386 1.552 10.0866 1.428 10.0866 1.284C10.0866 1.148 10.1386 1.032 10.2426 0.936C10.3546 0.832 10.4866 0.78 10.6386 0.78C10.7826 0.78 10.9066 0.832 11.0106 0.936C11.1146 1.032 11.1666 1.148 11.1666 1.284C11.1666 1.428 11.1146 1.552 11.0106 1.656C10.9066 1.752 10.7826 1.8 10.6386 1.8ZM15.0233 6.12C14.9193 6.12 14.8233 6.088 14.7353 6.024C14.6553 5.96 14.6152 5.868 14.6152 5.748V4.236C14.6152 3.884 14.5353 3.624 14.3753 3.456C14.2233 3.288 14.0193 3.204 13.7633 3.204C13.4353 3.204 13.1953 3.312 13.0433 3.528C12.8993 3.736 12.8273 3.968 12.8273 4.224V5.748C12.8273 5.868 12.7833 5.96 12.6953 6.024C12.6153 6.088 12.5233 6.12 12.4193 6.12C12.3153 6.12 12.2193 6.088 12.1313 6.024C12.0513 5.96 12.0113 5.868 12.0113 5.748V2.928C12.0113 2.792 12.0513 2.692 12.1313 2.628C12.2193 2.556 12.3153 2.52 12.4193 2.52C12.5233 2.52 12.6153 2.556 12.6953 2.628C12.7833 2.692 12.8273 2.792 12.8273 2.928C12.9633 2.792 13.1393 2.68 13.3553 2.592C13.5713 2.504 13.7753 2.46 13.9673 2.46C14.4153 2.46 14.7713 2.604 15.0353 2.892C15.2993 3.18 15.4313 3.604 15.4313 4.164V5.748C15.4313 5.868 15.3873 5.96 15.2993 6.024C15.2113 6.088 15.1193 6.12 15.0233 6.12ZM18.0035 6.12C17.4035 6.12 16.9355 5.948 16.5995 5.604C16.2635 5.26 16.0955 4.796 16.0955 4.212C16.0955 3.7 16.2635 3.28 16.5995 2.952C16.9435 2.624 17.3835 2.46 17.9195 2.46C18.4395 2.46 18.8555 2.612 19.1675 2.916C19.4795 3.212 19.6355 3.58 19.6355 4.02C19.6355 4.196 19.5875 4.328 19.4915 4.416C19.4035 4.504 19.2875 4.548 19.1435 4.548H17.0555C16.9755 4.548 16.9475 4.592 16.9715 4.68C17.0355 4.904 17.1635 5.08 17.3555 5.208C17.5555 5.328 17.7795 5.388 18.0275 5.388C18.2115 5.388 18.3875 5.364 18.5555 5.316C18.7315 5.268 18.8835 5.196 19.0115 5.1C19.0515 5.068 19.1035 5.052 19.1675 5.052C19.2555 5.052 19.3355 5.092 19.4075 5.172C19.4795 5.244 19.5155 5.332 19.5155 5.436C19.5155 5.484 19.5075 5.532 19.4915 5.58C19.4755 5.628 19.4395 5.676 19.3835 5.724C19.1755 5.876 18.9515 5.98 18.7115 6.036C18.4795 6.092 18.2435 6.12 18.0035 6.12ZM18.6995 3.924C18.7475 3.924 18.7715 3.9 18.7715 3.852C18.7715 3.668 18.6875 3.508 18.5195 3.372C18.3595 3.236 18.1595 3.168 17.9195 3.168C17.7115 3.168 17.5115 3.224 17.3195 3.336C17.1355 3.448 17.0235 3.596 16.9835 3.78C16.9835 3.78 16.9835 3.784 16.9835 3.792C16.9755 3.824 16.9715 3.852 16.9715 3.876C16.9795 3.9 17.0155 3.912 17.0795 3.912L18.6995 3.924ZM21.087 6.18C20.935 6.18 20.803 6.128 20.691 6.024C20.587 5.928 20.535 5.812 20.535 5.676C20.535 5.532 20.587 5.412 20.691 5.316C20.803 5.212 20.935 5.16 21.087 5.16C21.231 5.16 21.355 5.212 21.459 5.316C21.563 5.412 21.615 5.532 21.615 5.676C21.615 5.812 21.563 5.928 21.459 6.024C21.355 6.128 21.231 6.18 21.087 6.18ZM23.1653 6.12C23.0613 6.12 22.9653 6.088 22.8773 6.024C22.7973 5.96 22.7573 5.868 22.7573 5.748V2.928C22.7573 2.792 22.7973 2.692 22.8773 2.628C22.9653 2.556 23.0613 2.52 23.1653 2.52C23.2453 2.52 23.3213 2.54 23.3933 2.58C23.4653 2.612 23.5173 2.672 23.5493 2.76C23.5653 2.808 23.5733 2.852 23.5733 2.892C23.6933 2.764 23.8493 2.66 24.0413 2.58C24.2333 2.5 24.4213 2.46 24.6053 2.46C25.1253 2.46 25.5093 2.668 25.7573 3.084C25.8533 2.916 26.0093 2.772 26.2253 2.652C26.4493 2.524 26.7213 2.46 27.0413 2.46C27.4733 2.46 27.8173 2.604 28.0733 2.892C28.3293 3.18 28.4573 3.604 28.4573 4.164V5.748C28.4573 5.868 28.4133 5.96 28.3253 6.024C28.2373 6.088 28.1453 6.12 28.0493 6.12C27.9453 6.12 27.8493 6.088 27.7613 6.024C27.6813 5.96 27.6413 5.868 27.6413 5.748V4.236C27.6413 3.548 27.3853 3.204 26.8733 3.204C26.5853 3.204 26.3773 3.28 26.2493 3.432C26.1213 3.584 26.0413 3.764 26.0093 3.972V5.748C26.0093 5.868 25.9653 5.96 25.8773 6.024C25.7893 6.088 25.6973 6.12 25.6013 6.12C25.4973 6.12 25.4013 6.088 25.3133 6.024C25.2333 5.96 25.1933 5.868 25.1933 5.748V4.236C25.1933 3.884 25.1253 3.624 24.9893 3.456C24.8533 3.288 24.6693 3.204 24.4373 3.204C24.0933 3.204 23.8613 3.312 23.7413 3.528C23.6293 3.736 23.5733 3.968 23.5733 4.224V5.748C23.5733 5.868 23.5293 5.96 23.4413 6.024C23.3613 6.088 23.2693 6.12 23.1653 6.12ZM31.023 6.12C30.423 6.12 29.955 5.948 29.619 5.604C29.283 5.26 29.115 4.796 29.115 4.212C29.115 3.7 29.283 3.28 29.619 2.952C29.963 2.624 30.403 2.46 30.939 2.46C31.459 2.46 31.875 2.612 32.187 2.916C32.499 3.212 32.655 3.58 32.655 4.02C32.655 4.196 32.607 4.328 32.511 4.416C32.423 4.504 32.307 4.548 32.163 4.548H30.075C29.995 4.548 29.967 4.592 29.991 4.68C30.055 4.904 30.183 5.08 30.375 5.208C30.575 5.328 30.799 5.388 31.047 5.388C31.231 5.388 31.407 5.364 31.575 5.316C31.751 5.268 31.903 5.196 32.031 5.1C32.071 5.068 32.123 5.052 32.187 5.052C32.275 5.052 32.355 5.092 32.427 5.172C32.499 5.244 32.535 5.332 32.535 5.436C32.535 5.484 32.527 5.532 32.511 5.58C32.495 5.628 32.459 5.676 32.403 5.724C32.195 5.876 31.971 5.98 31.731 6.036C31.499 6.092 31.263 6.12 31.023 6.12ZM31.719 3.924C31.767 3.924 31.791 3.9 31.791 3.852C31.791 3.668 31.707 3.508 31.539 3.372C31.379 3.236 31.179 3.168 30.939 3.168C30.731 3.168 30.531 3.224 30.339 3.336C30.155 3.448 30.043 3.596 30.003 3.78C30.003 3.78 30.003 3.784 30.003 3.792C29.995 3.824 29.991 3.852 29.991 3.876C29.999 3.9 30.035 3.912 30.099 3.912L31.719 3.924Z" fill="#89C5CC"/>
</svg>
