<svg width="4" height="4" viewBox="0 0 4 4" fill="none" xmlns="http://www.w3.org/2000/svg">
<path d="M3.40033 0.581611C3.02684 0.206225 2.52886 0 1.99857 0C0.906627 0 0.0171062 0.889523 0.0161558 1.98147C0.0161558 2.3312 0.107389 2.67142 0.280351 2.97268L0 4L1.05108 3.7244C1.34093 3.88216 1.6669 3.96579 1.99857 3.96579H1.99952C3.09146 3.96579 3.98099 3.07627 3.98194 1.98337C3.98099 1.45403 3.77476 0.956047 3.40033 0.581611ZM1.99857 3.63032C1.70206 3.63032 1.41221 3.55049 1.15942 3.40033L1.09955 3.36422L0.476122 3.52768L0.642432 2.91946L0.603468 2.85674C0.438108 2.59444 0.351627 2.29128 0.351627 1.98052C0.351627 1.07389 1.09099 0.334521 1.99952 0.334521C2.43953 0.334521 2.85293 0.506534 3.16464 0.817296C3.4754 1.12901 3.64647 1.54241 3.64647 1.98242C3.64551 2.8919 2.90615 3.63032 1.99857 3.63032ZM2.90235 2.39677C2.85293 2.37206 2.60964 2.25232 2.56402 2.23521C2.51841 2.21905 2.48515 2.2105 2.45283 2.25992C2.41957 2.30934 2.32454 2.42148 2.29603 2.45379C2.26752 2.48705 2.23806 2.49085 2.18864 2.46614C2.13922 2.44144 1.97956 2.38917 1.79045 2.22001C1.64314 2.08886 1.54431 1.92635 1.51485 1.87693C1.48634 1.82751 1.512 1.8009 1.5367 1.77619C1.55856 1.75434 1.58612 1.71822 1.61083 1.68971C1.63554 1.6612 1.64409 1.64029 1.66025 1.60703C1.6764 1.57377 1.6688 1.54526 1.65645 1.52055C1.64409 1.49584 1.54526 1.2516 1.50344 1.15277C1.46353 1.05583 1.42266 1.06914 1.39225 1.06819C1.36374 1.06629 1.33048 1.06629 1.29722 1.06629C1.26396 1.06629 1.21074 1.07864 1.16512 1.12806C1.1195 1.17748 0.992158 1.29722 0.992158 1.54146C0.992158 1.7857 1.16987 2.02043 1.19458 2.05369C1.21929 2.08696 1.54336 2.58684 2.04039 2.80162C2.15823 2.85293 2.25041 2.88335 2.32264 2.90615C2.44143 2.94417 2.54882 2.93847 2.63435 2.92611C2.72938 2.91186 2.92706 2.80637 2.96887 2.69043C3.00974 2.57448 3.00974 2.47565 2.99738 2.45474C2.98503 2.43383 2.95176 2.42148 2.90235 2.39677Z" fill="#FAFAFA"/>
</svg>
